<?xml version="1.0" encoding="iso-8859-1"?>
<!-- Generator: Adobe Illustrator 19.0.0, SVG Export Plug-In . SVG Version: 6.00 Build 0)  -->
<svg version="1.1" id="Capa_1" xmlns="http://www.w3.org/2000/svg" xmlns:xlink="http://www.w3.org/1999/xlink" x="0px" y="0px"
	 viewBox="0 0 490.343 490.343" style="enable-background:new 0 0 490.343 490.343;" xml:space="preserve">
<g>
	<rect y="50.6" width="22.477" height="252.567"/>
	<rect x="58.787" y="50.6" width="22.477" height="252.567"/>
	<rect x="117.575" y="50.6" width="22.477" height="252.567"/>
	<path d="M477.759,368.26l-83.367-83.367c5.07-12.475,7.87-26.114,7.87-40.409c0-27.345-10.225-52.298-27.053-71.258V50.6h-22.477
		v103.394c-10.914-6.994-23.177-12.067-36.311-14.743V50.6h-22.477v86.497c-12.759,0.107-24.987,2.435-36.316,6.622V50.6H235.15
		v104.606c-15.381,10.307-27.946,24.484-36.311,41.137V50.6h-22.477v252.567h22.477v-10.542
		c17.652,35.14,54.019,59.258,96.023,59.258c14.3,0,27.943-2.802,40.421-7.874l83.358,83.363c12.328,12.328,38.915,20.202,59.118,0
		C500.877,404.253,486.776,376.308,477.759,368.26z M294.862,329.405c-46.901,0-84.922-38.021-84.922-84.922
		c0-46.901,38.021-84.922,84.922-84.922c46.901,0,84.922,38.021,84.922,84.922C379.784,291.384,341.763,329.405,294.862,329.405z
		 M461.866,411.48c-7.293,7.293-20.024,7.309-27.333,0l-78.626-78.631c10.673-7.387,19.941-16.656,27.327-27.33l78.632,78.632
		C472.093,394.378,466.211,407.135,461.866,411.48z"/>
</g>
<g>
</g>
<g>
</g>
<g>
</g>
<g>
</g>
<g>
</g>
<g>
</g>
<g>
</g>
<g>
</g>
<g>
</g>
<g>
</g>
<g>
</g>
<g>
</g>
<g>
</g>
<g>
</g>
<g>
</g>
</svg>
