<?xml version="1.0" encoding="UTF-8"?><svg id="a" xmlns="http://www.w3.org/2000/svg" viewBox="0 0 273.99 80.44"><path d="m11.491,64.022H0V6.606h40.199v11.491H11.491v11.491h17.217v11.491H11.491v22.942h0Z" fill="#231f20"/><path d="m81.359,42.201c0,3.203-.574,6.186-1.722,8.949s-2.709,5.152-4.685,7.167c-1.976,2.016-4.291,3.604-6.947,4.765s-5.505,1.742-8.548,1.742c-3.017,0-5.853-.581-8.508-1.742-2.656-1.161-4.979-2.749-6.967-4.765-1.989-2.015-3.557-4.404-4.705-7.167-1.148-2.763-1.722-5.746-1.722-8.949,0-3.256.574-6.272,1.722-9.049,1.147-2.776,2.716-5.171,4.705-7.187,1.988-2.015,4.311-3.597,6.967-4.745,2.656-1.147,5.492-1.722,8.508-1.722,3.043,0,5.892.541,8.548,1.622s4.971,2.616,6.947,4.604c1.975,1.989,3.537,4.378,4.685,7.167,1.147,2.79,1.722,5.893,1.722,9.309h0Zm-11.011,0c0-1.762-.287-3.356-.861-4.785-.574-1.428-1.355-2.656-2.342-3.684-.988-1.027-2.142-1.815-3.463-2.362s-2.729-.821-4.224-.821-2.903.274-4.224.821-2.469,1.335-3.443,2.362c-.975,1.028-1.742,2.256-2.302,3.684-.561,1.428-.841,3.023-.841,4.785,0,1.655.28,3.19.841,4.604.561,1.415,1.328,2.643,2.302,3.684s2.122,1.862,3.443,2.462,2.729.901,4.224.901,2.903-.28,4.224-.841,2.476-1.348,3.463-2.362c.987-1.014,1.768-2.242,2.342-3.684.574-1.441.861-3.029.861-4.765h0Z" fill="#231f20"/><path d="m128.845,42.201c0,3.203-.574,6.186-1.722,8.949s-2.709,5.152-4.685,7.167c-1.976,2.016-4.291,3.604-6.947,4.765s-5.505,1.742-8.548,1.742c-3.017,0-5.853-.581-8.508-1.742-2.656-1.161-4.979-2.749-6.967-4.765-1.989-2.015-3.557-4.404-4.705-7.167-1.148-2.763-1.722-5.746-1.722-8.949,0-3.256.574-6.272,1.722-9.049,1.147-2.776,2.716-5.171,4.705-7.187,1.988-2.015,4.311-3.597,6.967-4.745,2.656-1.147,5.492-1.722,8.508-1.722,3.043,0,5.892.541,8.548,1.622s4.971,2.616,6.947,4.604c1.975,1.989,3.537,4.378,4.685,7.167,1.147,2.79,1.722,5.893,1.722,9.309h0Zm-11.011,0c0-1.762-.287-3.356-.861-4.785-.574-1.428-1.355-2.656-2.342-3.684-.988-1.027-2.142-1.815-3.463-2.362s-2.729-.821-4.224-.821-2.903.274-4.224.821-2.469,1.335-3.443,2.362c-.975,1.028-1.742,2.256-2.302,3.684-.561,1.428-.841,3.023-.841,4.785,0,1.655.28,3.19.841,4.604.561,1.415,1.328,2.643,2.302,3.684s2.122,1.862,3.443,2.462,2.729.901,4.224.901,2.903-.28,4.224-.841,2.476-1.348,3.463-2.362c.987-1.014,1.768-2.242,2.342-3.684.574-1.441.861-3.029.861-4.765h0Z" fill="#231f20"/><path d="m176.331,64.022h-2.643l-4.244-5.886c-1.041.935-2.142,1.809-3.303,2.623s-2.382,1.521-3.664,2.122-2.596,1.075-3.944,1.421c-1.348.347-2.716.521-4.104.521-3.017,0-5.853-.567-8.508-1.702-2.656-1.134-4.979-2.709-6.967-4.725-1.989-2.015-3.557-4.404-4.705-7.167-1.148-2.763-1.722-5.772-1.722-9.029,0-3.229.574-6.232,1.722-9.009,1.147-2.776,2.716-5.178,4.705-7.207,1.988-2.028,4.311-3.617,6.967-4.765,2.656-1.147,5.492-1.722,8.508-1.722.961,0,1.955.08,2.983.24,1.027.16,2.028.42,3.003.781.974.36,1.888.834,2.743,1.421.854.587,1.575,1.308,2.162,2.162V4.081h11.011v59.941Zm-11.011-21.821c0-1.495-.287-2.943-.861-4.344s-1.355-2.643-2.342-3.724c-.988-1.081-2.142-1.948-3.463-2.603-1.321-.654-2.729-.981-4.224-.981s-2.903.267-4.224.801c-1.321.534-2.469,1.301-3.443,2.302-.975,1.001-1.742,2.222-2.302,3.664s-.841,3.07-.841,4.885c0,1.575.28,3.07.841,4.484.561,1.415,1.328,2.656,2.302,3.724s2.122,1.909,3.443,2.522c1.321.614,2.729.921,4.224.921s2.903-.327,4.224-.981c1.321-.654,2.476-1.521,3.463-2.603.987-1.081,1.768-2.322,2.342-3.724.574-1.401.861-2.849.861-4.344h0Z" fill="#231f20"/><path d="m197.553,9.489c0,1.015-.195,1.962-.58,2.843-.389.881-.916,1.648-1.582,2.302-.668.654-1.449,1.175-2.342,1.562-.896.387-1.85.581-2.863.581s-1.969-.193-2.863-.581c-.895-.387-1.668-.907-2.322-1.562-.654-.654-1.175-1.421-1.562-2.302-.387-.881-.581-1.828-.581-2.843,0-.987.193-1.928.581-2.823.387-.894.907-1.668,1.562-2.322s1.428-1.174,2.322-1.562c.894-.387,1.848-.581,2.863-.581s1.967.194,2.863.581c.893.387,1.674.908,2.342,1.562.666.654,1.193,1.428,1.582,2.322.385.895.58,1.835.58,2.823Zm-1.883,54.533h-11.01V21.14h11.01v42.882Z" fill="#231f20"/><path d="m217.893,64.022h-10.931v-31.991h-5.325v-10.891h5.325v-2.042c0-2.643.5-5.125,1.502-7.447,1-2.322,2.375-4.344,4.123-6.066s3.784-3.083,6.106-4.084,4.805-1.501,7.447-1.501h8.208v10.891h-8.208c-1.175,0-2.263.207-3.263.621-1.002.414-1.869.988-2.604,1.722-.734.734-1.314,1.602-1.741,2.603-.428,1.001-.641,2.089-.641,3.263v2.042h13.413v10.891h-13.413v31.991l.002-.002Z" fill="#231f20"/><path d="m246.48,80.358v-11.011l6.086.08c1.067,0,2.095-.174,3.083-.521.987-.347,1.901-.828,2.743-1.441.84-.614,1.581-1.341,2.222-2.182s1.161-1.755,1.562-2.743c-1.201.507-2.422,1.015-3.664,1.521-1.24.507-2.489.761-3.743.761-2.643,0-5.125-.467-7.447-1.401s-4.358-2.262-6.106-3.984-3.123-3.817-4.123-6.286c-1.002-2.469-1.502-5.238-1.502-8.308v-23.703h10.891v23.703c0,1.521.221,2.85.66,3.984.441,1.135,1.034,2.082,1.782,2.843.747.761,1.622,1.328,2.622,1.702,1.002.374,2.075.561,3.224.561,1.121,0,2.183-.26,3.183-.781,1.002-.521,1.875-1.208,2.623-2.062.747-.854,1.334-1.822,1.762-2.903.427-1.081.641-2.195.641-3.343v-23.703h11.011v37.477c-.027,3.017-.614,5.846-1.762,8.488-1.148,2.643-2.717,4.951-4.704,6.927-1.989,1.975-4.305,3.537-6.947,4.685-2.643,1.147-5.473,1.722-8.488,1.722l-5.605-.08-.004-.002Z" fill="#231f20"/></svg>