<?xml version="1.0" encoding="UTF-8"?><svg id="a" xmlns="http://www.w3.org/2000/svg" xmlns:xlink="http://www.w3.org/1999/xlink" viewBox="0 0 1649.652 1949.94"><defs><radialGradient id="c" cx="824.826" cy="738.08" fx="824.826" fy="1460.038" r="805.983" gradientTransform="translate(0 2158.671) scale(1 -1.283)" gradientUnits="userSpaceOnUse"><stop offset=".19" stop-color="#fde047"/><stop offset=".435" stop-color="#fbb935"/><stop offset=".795" stop-color="#f9861e"/><stop offset=".971" stop-color="#f97316"/></radialGradient><radialGradient id="e" cx="599.619" cy="1617.473" fx="798.544" fy="1768.936" r="250.024" gradientTransform="translate(49.66 2201.878) rotate(-2.111) scale(1 -1.19)" gradientUnits="userSpaceOnUse"><stop offset=".012" stop-color="#a3e635"/><stop offset="1" stop-color="#22c55e"/></radialGradient><radialGradient id="f" cx="1108.744" cy="1733.535" fx="860.549" fy="1943.837" r="325.311" gradientTransform="translate(0 1950) scale(1 -1)" gradientUnits="userSpaceOnUse"><stop offset=".012" stop-color="#a3e635"/><stop offset="1" stop-color="#22c55e"/></radialGradient></defs><g id="b"><path d="m1141.062,473.9c-104.077,0-209.846,37.441-302.117,125.771-7.897,7.559-20.339,7.559-28.236,0-92.256-88.311-198.064-125.77-302.117-125.771-283.507-.003-554.022,278.064-502.164,563.284,86.982,478.403,719.986,859.062,808.203,910.022,6.309,3.645,14.082,3.645,20.391,0,88.217-50.961,721.221-431.619,808.203-910.022,51.854-285.196-218.683-563.284-502.164-563.284h0Zm0,134c32.41,0,65.868,5.376,98.92,15.755,14.426,4.53,19.067,22.653,8.617,33.581l-338.265,353.747c-12.72,13.302-35.162,4.299-35.162-14.106v-234.378c0-5.308,2.068-10.407,5.764-14.215l40.046-41.26c63.838-65.773,137.884-99.123,220.079-99.123h0Zm-412.391,99.123l38.661,39.833c3.697,3.809,5.764,8.908,5.764,14.215v242.652c0,17.986-21.577,27.18-34.549,14.72l-364.91-350.494c-10.622-10.202-7.296-28.015,6.337-33.587,42.509-17.374,86.449-26.463,128.616-26.463,82.198.001,156.244,33.351,220.081,99.123Zm-581.447,173.556c13.587-44.004,37.844-87.724,70.149-126.432,10.418-12.482,21.598-24.383,33.426-35.618,7.915-7.518,20.343-7.491,28.216.071l387.014,371.725c13.258,12.734,4.244,35.131-14.139,35.131H185.278c-8.5,0-16.104-5.274-19.111-13.226-12.681-33.54-22.004-66.582-27.901-99.017-7.868-43.277-4.855-87.902,8.957-132.635h0Zm132.922,435.208c-13.998-19.064-27.03-38.043-39.09-56.921-8.661-13.557,1.154-31.334,17.242-31.334h397.207c17.964,0,27.167,21.533,14.752,34.516l-213.164,222.92c-7.9,8.262-21.039,8.413-29.154.362-57.036-56.586-106.503-113.313-147.793-169.544Zm252.451,237.921l205.338-214.736c12.72-13.302,35.162-4.299,35.162,14.106v371.732c0,16.42-18.418,26.136-31.95,16.836-90.498-62.2-161.486-119.576-207.101-158.683h0c-8.784-7.531-9.445-20.892-1.449-29.255Zm342.576,172.05v-387.567c0-17.949,21.501-27.15,34.493-14.766l224.426,213.926c8.682,8.276,8.395,22.215-.622,30.123-5.892,5.167-11.844,10.329-17.861,15.488-76.304,65.417-150.899,120.086-208.468,159.618-13.547,9.303-31.968-.39-31.968-16.823h0Zm334.872-257.028l-216.125-206.013c-13.333-12.71-4.338-35.184,14.083-35.184h383.354c16.087,0,25.902,17.777,17.241,31.334-12.06,18.877-25.091,37.857-39.09,56.921-37.125,50.561-80.863,101.522-130.769,152.422-7.827,7.983-20.602,8.235-28.695.521h0Zm301.343-455.515c-5.897,32.434-15.22,65.477-27.901,99.016-3.006,7.951-10.61,13.226-19.111,13.226h-474.513c-17.964,0-27.167-21.533-14.752-34.516l373.545-390.642c7.392-7.731,19.504-8.449,27.752-1.64,20.285,16.747,39.065,35.373,55.866,55.504,32.306,38.71,56.565,82.43,70.153,126.434,13.812,44.729,16.827,89.348,8.96,132.618h0Z" fill="url(#c)"/></g><g id="d"><path d="m379.288,91.117c11.691-.65,23.383-1.299,35.074-1.949,0,0,158.765-9.557,272.15,92.232,77.711,69.763,112.015,199.25,75.345,231.88-39.68,35.307-165.674-39.061-236.426-101.326-86.014-75.695-126.669-165.434-146.143-220.838Z" fill="url(#e)" isolation="isolate"/><path d="m1366.641,2.84c-15.179-.843-30.357-1.686-45.536-2.53,0,0-206.12-12.407-353.324,119.742-100.89,90.572-145.426,258.68-97.818,301.042,51.515,45.839,215.089-50.711,306.945-131.548,111.669-98.273,164.45-214.778,189.733-286.707h0Z" fill="url(#f)" isolation="isolate"/></g></svg>